<svg width="70" height="70" viewBox="0 0 70 70" fill="none" xmlns="http://www.w3.org/2000/svg">
<path d="M57.0814 2.21649C60.0367 -0.73883 64.8282 -0.73883 67.7835 2.21649C70.7388 5.17181 70.7388 9.96333 67.7835 12.9186C64.8282 15.874 60.0367 15.874 57.0814 12.9186C54.126 9.96333 54.126 5.17181 57.0814 2.21649Z" fill="white"/>
<path fill-rule="evenodd" clip-rule="evenodd" d="M48.3859 21.6141C45.784 19.0123 44.0548 15.8682 43.1982 12.5457C42.7602 10.8469 41.6731 9.3094 39.9892 8.81724C37.2062 8.00381 34.2621 7.56757 31.2162 7.56757C13.976 7.56757 0 21.5435 0 38.7838C0 56.024 13.976 70 31.2162 70C48.4565 70 62.4324 56.024 62.4324 38.7838C62.4324 35.7379 61.9962 32.7938 61.1828 30.0108C60.6906 28.3269 59.1531 27.2398 57.4543 26.8018C54.1318 25.9452 50.9877 24.216 48.3859 21.6141ZM31.2162 58.6486C42.1873 58.6486 51.0811 49.7548 51.0811 38.7838C51.0811 27.8127 42.1873 18.9189 31.2162 18.9189C20.2452 18.9189 11.3514 27.8127 11.3514 38.7838C11.3514 49.7548 20.2452 58.6486 31.2162 58.6486Z" fill="#FFD600"/>
</svg>
